<svg width="352" height="351" viewBox="0 0 352 351" fill="none" xmlns="http://www.w3.org/2000/svg">
<rect x="0.61322" width="350.593" height="350.593" rx="10" fill="white"/>
<g clip-path="url(#clip0_37_5)">
<path d="M24.1029 142.198C24.1029 120.005 42.094 102.014 64.287 102.014H287.532C309.725 102.014 327.716 120.005 327.716 142.198V189.08C327.716 190.313 326.716 191.312 325.484 191.312H26.3354C25.1024 191.312 24.1029 190.313 24.1029 189.08V142.198Z" fill="#142B6F"/>
<path d="M156.487 191.982H63.8405C63.8405 180.894 70.0914 146.663 108.713 146.663C141.234 146.663 156.859 171.071 156.487 191.982Z" fill="#E1DEE6"/>
<path d="M143.762 190.419C143.762 208.913 128.77 223.906 110.276 223.906C91.781 223.906 76.7888 208.913 76.7888 190.419C76.7888 171.925 91.781 156.932 110.276 156.932C128.77 156.932 143.762 171.925 143.762 190.419Z" fill="#142B6F"/>
<path d="M289.541 191.982H196.895C196.895 180.894 203.145 146.663 241.767 146.663C274.288 146.663 289.913 171.071 289.541 191.982Z" fill="#E1DEE6"/>
<path d="M276.816 190.419C276.816 208.913 261.824 223.906 243.33 223.906C224.835 223.906 209.843 208.913 209.843 190.419C209.843 171.925 224.835 156.932 243.33 156.932C261.824 156.932 276.816 171.925 276.816 190.419Z" fill="#142B6F"/>
<path d="M172.731 285.261C218.982 285.495 233.352 263.913 243.517 248.248L224.607 248.152C221.306 256.946 200.908 274.464 175.622 274.337C152.93 274.221 132.188 262.508 126.591 247.656L109.572 247.57C112.877 258.824 126.48 285.027 172.731 285.261Z" fill="#142B6F"/>
<path d="M178.142 73.2156C159.613 73.2156 129.921 89.066 126.796 102.014H226.363C226.363 87.9497 196.671 73.2156 178.142 73.2156Z" fill="#E1DEE6"/>
<path d="M179.534 64.509C133.282 64.5091 119.021 86.1638 108.936 101.88H127.846C131.103 93.0691 151.412 75.448 176.698 75.448C199.39 75.448 220.191 87.0567 225.864 101.88H242.883C239.521 90.643 225.786 64.509 179.534 64.509Z" fill="#142B6F"/>
</g>
<defs>
<clipPath id="clip0_37_5">
<rect x="24.1029" y="64.509" width="303.613" height="221.459" rx="10" fill="white"/>
</clipPath>
</defs>
</svg>
