<svg xmlns="http://www.w3.org/2000/svg" xmlns:xlink="http://www.w3.org/1999/xlink" width="24" zoomAndPan="magnify" viewBox="0 0 375 374.999991" height="24" preserveAspectRatio="xMidYMid meet" version="1.0"><defs><clipPath id="4fc424c4a3"><path d="M 0 14.296875 L 375 14.296875 L 375 360 L 0 360 Z M 0 14.296875 " clip-rule="nonzero"/></clipPath></defs><g clip-path="url(#4fc424c4a3)"><path fill="currentColor" d="M 138.738281 15.90625 C 133.109375 16.988281 124.121094 20.734375 118.804688 24.121094 C 113.488281 27.4375 105.828125 34.71875 101.6875 40.414062 L 97.855469 45.53125 L 90.742188 45.605469 C 85.503906 45.605469 82.144531 46.035156 78.46875 47.1875 C 65.023438 51.371094 53.765625 61.460938 49 73.859375 C 47.121094 78.617188 46.886719 80.421875 46.808594 88.925781 L 46.730469 98.511719 L 42.824219 101.539062 C 37.976562 105.21875 33.992188 109.324219 31.253906 113.433594 C 26.171875 120.785156 23.359375 132.175781 24.453125 140.539062 L 25 144.863281 L 19.292969 150.414062 C 6.082031 163.316406 1.003906 182.273438 6.785156 196.546875 L 8.664062 201.089844 L 6.863281 203.539062 C 5.847656 204.910156 3.894531 208.800781 2.566406 212.1875 C 0.296875 217.667969 0.0625 219.253906 -0.015625 225.957031 C -0.015625 232.226562 0.296875 234.246094 1.785156 237.851562 C 4.128906 243.328125 7.804688 248.589844 12.023438 252.410156 L 15.386719 255.4375 L 15.230469 262.9375 C 14.996094 276.414062 18.511719 285.355469 27.1875 292.851562 C 30.160156 295.375 33.992188 297.824219 37.195312 299.121094 C 41.730469 300.996094 42.433594 301.574219 42.511719 303.160156 C 42.511719 307.050781 46.417969 319.089844 49.234375 324.136719 C 52.984375 330.695312 62.132812 339.34375 68.386719 342.226562 C 77.453125 346.335938 85.113281 347.203125 95.277344 345.253906 C 98.246094 344.679688 101.375 344.175781 102.078125 344.175781 C 102.78125 344.175781 105.75 345.832031 108.566406 347.777344 C 115.757812 352.753906 121.933594 355.5625 130.6875 357.582031 C 143.429688 360.539062 155.9375 359.671875 164.300781 355.203125 C 169.460938 352.464844 175.324219 346.699219 178.292969 341.578125 C 183.53125 332.496094 183.21875 343.382812 183.21875 186.671875 C 183.21875 61.460938 183.0625 44.089844 182.046875 40.339844 C 178.527344 27.871094 167.664062 18.140625 154.453125 15.546875 C 149.136719 14.535156 144.992188 14.609375 138.738281 15.90625 Z M 225.585938 16.988281 C 212.765625 19.078125 202.527344 25.347656 197.679688 34.214844 C 194.085938 40.703125 194.164062 35.65625 194.164062 187.03125 C 194.164062 278.867188 194.476562 331.199219 194.945312 333.21875 C 196.195312 338.121094 198.773438 342.589844 202.917969 346.699219 C 210.734375 354.554688 219.644531 358.085938 232.074219 358.085938 C 244.894531 358.160156 256.152344 354.410156 266.078125 346.914062 C 271.082031 343.09375 271.238281 343.019531 274.679688 343.671875 C 276.632812 343.957031 281.402344 344.101562 285.230469 343.957031 C 310.480469 342.804688 329.320312 326.152344 331.429688 303.160156 L 331.976562 297.679688 L 335.027344 296.382812 C 346.359375 291.410156 357.460938 278.722656 359.960938 267.765625 C 361.996094 259.042969 360.511719 247.222656 356.445312 239.871094 L 354.570312 236.410156 L 361.058594 230.210938 C 370.75 220.910156 374.894531 211.902344 374.972656 200.078125 C 374.972656 187.390625 369.8125 176.003906 359.101562 165.191406 L 355.195312 161.226562 L 356.757812 155.675781 C 359.492188 145.800781 358.476562 137.292969 353.472656 128.066406 C 350.738281 123.023438 343.46875 115.238281 338.386719 112.066406 L 335.105469 109.972656 L 334.636719 102.1875 C 332.914062 75.589844 317.90625 56.632812 294.613281 51.875 L 288.75 50.648438 L 286.011719 45.820312 C 276.476562 29.097656 257.324219 17.921875 235.90625 16.625 C 232.464844 16.480469 227.855469 16.554688 225.585938 16.988281 Z M 147.355469 25.632812 L 147.484375 25.628906 C 150.503906 25.628906 153.398438 26.078125 156.09375 27.007812 C 162.035156 29.097656 166.253906 32.699219 169.304688 38.394531 L 171.882812 43.152344 L 172.117188 57.570312 C 172.351562 71.195312 172.351562 71.84375 170.945312 71.410156 C 168.835938 70.617188 159.296875 69.96875 157.8125 70.542969 C 156.640625 70.90625 156.71875 71.195312 158.203125 72.921875 C 159.140625 74.078125 162.660156 77.609375 166.097656 80.851562 L 172.273438 86.761719 L 172.273438 98.296875 C 172.273438 104.710938 172.117188 109.902344 171.960938 109.902344 C 171.804688 109.902344 169.773438 109.109375 167.429688 108.101562 C 159.0625 104.496094 148.433594 106.371094 142.570312 112.496094 C 139.285156 115.957031 139.519531 116.679688 143.585938 116.101562 C 156.09375 114.371094 159.296875 114.949219 167.429688 120.5 L 172.273438 123.8125 L 172.273438 139.601562 C 172.273438 156.683594 172.507812 155.890625 167.585938 154.59375 C 162.660156 153.226562 156.25 153.585938 152.730469 155.386719 C 151.011719 156.253906 149.527344 157.261719 149.527344 157.621094 C 149.484375 157.785156 149.4375 158.058594 149.394531 158.347656 L 149.367188 158.539062 C 149.339844 158.699219 149.316406 158.855469 149.292969 158.992188 C 149.214844 159.496094 152.183594 160.359375 156.171875 161.152344 C 160.003906 161.875 165.082031 163.386719 167.507812 164.46875 L 171.882812 166.488281 L 172.117188 188.042969 L 172.273438 209.59375 L 169.851562 212.550781 C 166.253906 216.800781 161.332031 220.261719 154.296875 223.507812 C 147.105469 226.75 146.476562 228.121094 151.167969 229.851562 C 155.390625 231.4375 160.941406 231.292969 166.960938 229.5625 C 169.617188 228.769531 171.960938 228.121094 172.117188 228.121094 C 172.195312 228.121094 172.273438 232.660156 172.273438 238.140625 L 172.273438 248.160156 L 169.382812 248.589844 C 167.742188 248.808594 164.535156 249.167969 162.347656 249.457031 C 159.6875 249.746094 158.203125 250.25 158.203125 250.824219 C 158.203125 252.269531 163.597656 256.230469 168.132812 258.179688 L 172.273438 259.910156 L 172.273438 287.878906 L 169.773438 289.605469 C 159.84375 296.453125 148.902344 296.816406 137.332031 290.761719 C 131.46875 287.660156 128.890625 284.5625 123.339844 273.675781 C 117.085938 261.566406 115.445312 261.496094 115.289062 273.242188 C 115.210938 279.730469 117.242188 286.21875 121.308594 291.984375 C 125.839844 298.402344 130.921875 301.789062 140.617188 304.886719 C 150.386719 307.917969 158.671875 307.554688 166.960938 303.734375 C 169.382812 302.582031 171.648438 301.644531 171.882812 301.644531 C 172.195312 301.644531 172.273438 307.917969 172.117188 315.484375 C 171.726562 332.570312 170.789062 335.597656 163.519531 342.15625 C 155.78125 349.148438 146.945312 350.660156 132.796875 347.347656 C 127.246094 346.046875 120.683594 342.949219 116.460938 339.632812 L 113.410156 337.253906 L 115.523438 334.226562 C 118.257812 330.261719 120.054688 323.703125 119.507812 320.027344 C 118.804688 315.699219 117.476562 312.386719 116.617188 312.601562 C 116.226562 312.746094 115.132812 314.691406 114.117188 316.855469 C 112.394531 320.890625 105.984375 330.261719 104.03125 331.777344 C 101.84375 333.507812 90.039062 335.667969 84.410156 335.378906 C 70.496094 334.730469 59.472656 324.710938 55.097656 308.710938 L 53.609375 303.445312 L 62.523438 302.582031 C 70.183594 301.789062 78.15625 300.347656 81.832031 299.050781 C 82.457031 298.832031 85.191406 300.5625 88.164062 303.085938 C 92.460938 306.691406 93.636719 307.339844 94.808594 306.691406 C 99.261719 304.527344 97.308594 296.816406 90.585938 290.328125 C 86.753906 286.652344 85.738281 286.578125 78.15625 288.957031 C 68.152344 292.128906 58.144531 292.996094 49.15625 291.480469 C 35.710938 289.175781 27.972656 281.316406 26.484375 268.34375 C 25.78125 261.496094 26.09375 260.84375 30.316406 261.132812 C 32.269531 261.277344 35.554688 260.917969 37.664062 260.269531 C 41.730469 259.042969 47.203125 255.296875 46.261719 254.429688 C 45.949219 254.070312 42.824219 253.421875 39.382812 252.84375 C 29.691406 251.332031 25.234375 249.457031 20.46875 245.203125 C 11.945312 237.417969 9.210938 227.613281 12.726562 217.523438 C 13.664062 214.785156 14.917969 212.046875 15.542969 211.324219 C 16.480469 210.097656 16.792969 210.171875 20.859375 212.550781 C 32.738281 219.542969 47.046875 219.832031 55.722656 213.125 C 59.394531 210.316406 58.457031 209.378906 51.890625 209.378906 C 45.246094 209.378906 36.414062 207.71875 31.019531 205.414062 C 26.25 203.394531 20.542969 198.203125 18.121094 193.589844 C 13.117188 184.148438 17.574219 166.992188 27.269531 157.765625 C 32.425781 152.9375 36.414062 151.132812 43.917969 150.269531 C 53.765625 149.117188 65.570312 144.789062 65.570312 142.339844 C 65.570312 140.25 58.613281 139.3125 46.652344 139.816406 L 35.476562 140.25 L 35.476562 135.996094 C 35.476562 127.492188 39.460938 119.203125 46.886719 112.136719 L 51.890625 107.453125 L 55.175781 110.40625 C 58.925781 113.652344 62.679688 115.667969 65.179688 115.667969 C 67.210938 115.667969 67.054688 115.09375 62.835938 106.152344 C 61.195312 102.695312 59.238281 97.574219 58.457031 94.691406 C 54.785156 80.78125 63.226562 65.425781 78.234375 58.652344 C 83.238281 56.34375 83.941406 56.199219 92.148438 56.199219 C 99.417969 56.199219 101.375 56.488281 104.65625 57.859375 C 109.816406 60.019531 111.222656 61.316406 111.691406 64.417969 C 112.003906 65.859375 112.707031 68.382812 113.332031 70.039062 C 114.429688 72.707031 114.898438 73.140625 116.851562 73.140625 C 118.648438 73.140625 119.585938 72.492188 121.308594 70.183594 C 124.902344 65.210938 127.875 62.253906 132.25 59.300781 C 139.128906 54.613281 142.023438 53.675781 150.152344 53.675781 C 154.765625 53.675781 157.5 53.390625 157.890625 52.8125 C 159.296875 50.792969 146.632812 44.449219 139.910156 43.800781 C 134.597656 43.296875 129.125 45.460938 123.339844 50.289062 L 119.273438 53.675781 L 115.132812 51.082031 C 112.785156 49.640625 110.832031 48.269531 110.675781 47.910156 C 110.207031 46.828125 118.023438 38.179688 122.402344 34.933594 C 130.535156 28.890625 139.367188 25.671875 147.355469 25.632812 Z M 296.019531 297.277344 C 302.59375 298.765625 307.507812 304.652344 307.507812 311.675781 C 307.507812 319.824219 300.894531 326.441406 292.75 326.441406 C 284.660156 326.441406 278.085938 319.921875 277.992188 311.851562 C 277.890625 310.050781 278.191406 308.160156 278.976562 306.257812 C 279.078125 306.015625 279.199219 305.765625 279.335938 305.515625 C 281.09375 301.695312 284.429688 298.753906 288.507812 297.53125 C 288.683594 296.546875 288.75 285.785156 288.75 285.785156 L 264.75 262.648438 L 210.445312 262.390625 L 210.460938 257.226562 L 268.035156 256.953125 L 295.707031 283.261719 C 295.707031 283.261719 295.847656 296.101562 296.019531 297.277344 Z M 225.304688 293.863281 C 233.453125 293.863281 240.066406 300.480469 240.066406 308.628906 C 240.066406 316.777344 233.453125 323.390625 225.304688 323.390625 C 217.160156 323.390625 210.546875 316.777344 210.546875 308.628906 C 210.546875 300.480469 217.160156 293.863281 225.304688 293.863281 Z M 292.882812 305.449219 C 296.207031 305.449219 298.910156 308.152344 298.910156 311.480469 C 298.910156 314.808594 296.207031 317.511719 292.882812 317.511719 C 289.554688 317.511719 286.851562 314.808594 286.851562 311.480469 C 286.851562 308.152344 289.554688 305.449219 292.882812 305.449219 Z M 225.492188 302.949219 C 228.816406 302.949219 231.519531 305.652344 231.519531 308.980469 C 231.519531 312.308594 228.816406 315.011719 225.492188 315.011719 C 222.164062 315.011719 219.460938 312.308594 219.460938 308.980469 C 219.460938 305.652344 222.164062 302.949219 225.492188 302.949219 Z M 245.949219 290.125 C 245.324219 288.847656 244.972656 287.503906 244.972656 286.148438 L 244.972656 284.34375 L 210.578125 284.34375 L 210.578125 278.578125 L 246.300781 278.578125 L 247.746094 277.136719 C 250.402344 273.238281 254.878906 270.675781 259.949219 270.675781 C 268.09375 270.675781 274.707031 277.292969 274.707031 285.441406 C 274.707031 293.589844 268.09375 300.203125 259.949219 300.203125 C 253.4375 300.203125 247.90625 295.980469 245.949219 290.125 Z M 260.316406 279.636719 C 263.644531 279.636719 266.347656 282.339844 266.347656 285.667969 C 266.347656 289 263.644531 291.699219 260.316406 291.699219 C 256.988281 291.699219 254.289062 289 254.289062 285.667969 C 254.289062 282.339844 256.988281 279.636719 260.316406 279.636719 Z M 88.632812 224.515625 C 78.46875 226.460938 68.777344 233.453125 64.007812 242.25 C 62.054688 245.925781 61.742188 247.292969 61.742188 252.628906 C 61.742188 256.953125 62.054688 259.402344 62.992188 260.917969 L 64.320312 263.082031 L 65.960938 259.476562 C 70.652344 249.457031 72.371094 246.859375 77.0625 242.898438 C 83.472656 237.632812 89.960938 234.605469 95.199219 234.605469 C 98.558594 234.605469 100.75 235.328125 109.347656 239.363281 C 114.898438 242.03125 122.792969 246.070312 126.855469 248.375 C 130.84375 250.753906 134.441406 252.628906 134.832031 252.628906 C 135.847656 252.628906 134.910156 249.3125 132.640625 245.058594 C 128.8125 237.851562 117.085938 229.058594 107.15625 226.027344 C 101.296875 224.226562 93.554688 223.578125 88.632812 224.515625 Z M 287.085938 246.988281 L 287.03125 246.859375 L 210.394531 246.398438 L 210.578125 240.375 L 287.375 240.375 C 289.09375 234.132812 294.816406 229.542969 301.601562 229.542969 C 309.75 229.542969 316.363281 236.160156 316.363281 244.308594 C 316.363281 252.457031 309.75 259.070312 301.601562 259.070312 C 294.371094 259.070312 288.347656 253.859375 287.085938 246.988281 Z M 302.1875 238.375 C 305.515625 238.375 308.214844 241.078125 308.214844 244.40625 C 308.214844 247.738281 305.515625 250.4375 302.1875 250.4375 C 298.859375 250.4375 296.15625 247.738281 296.15625 244.40625 C 296.15625 241.078125 298.859375 238.375 302.1875 238.375 Z M 318.421875 152.65625 C 317.90625 152.5 317.121094 152.433594 316.03125 152.433594 C 313.609375 152.433594 311.808594 153.082031 308.371094 155.316406 L 303.914062 158.199219 L 256.621094 158.199219 L 256.699219 192.941406 L 256.898438 228.390625 L 250.445312 228.191406 L 250.445312 151.640625 L 275.460938 152.144531 C 300.476562 152.648438 300.554688 152.648438 302.820312 151.0625 C 309.542969 146.519531 310.871094 145.945312 314.625 145.945312 C 316.710938 145.945312 317.691406 145.894531 318.421875 145.347656 C 320.050781 138.960938 325.839844 134.234375 332.726562 134.234375 C 340.871094 134.234375 347.484375 140.851562 347.484375 149 C 347.484375 157.148438 340.871094 163.761719 332.726562 163.761719 C 325.84375 163.761719 320.050781 159.039062 318.421875 152.65625 Z M 314.261719 214.03125 C 313.519531 213.367188 274.679688 213.703125 274.679688 213.703125 L 274.679688 228.121094 L 267.644531 228.121094 L 267.644531 207.9375 L 314.546875 207.9375 L 314.6875 207.679688 C 316.195312 201.125 322.070312 196.234375 329.074219 196.234375 C 337.21875 196.234375 343.832031 202.851562 343.832031 211 C 343.832031 219.144531 337.21875 225.761719 329.074219 225.761719 C 322.402344 225.761719 316.085938 220.117188 314.261719 214.03125 Z M 271.542969 81.488281 C 271.550781 81.589844 271.550781 81.691406 271.550781 81.789062 C 271.550781 82.972656 271.296875 84.214844 270.847656 85.4375 C 269.171875 90.636719 264.6875 94.578125 259.1875 95.476562 L 258.652344 123.597656 L 240.285156 139.601562 L 240.285156 228.121094 L 233.246094 228.121094 L 233.246094 137.65625 L 252.007812 120.355469 L 251.933594 94.847656 C 246.171875 92.835938 242.035156 87.351562 242.035156 80.90625 C 242.035156 72.757812 248.648438 66.144531 256.796875 66.144531 C 264.941406 66.144531 271.554688 72.757812 271.554688 80.90625 C 271.554688 81.101562 271.550781 81.292969 271.542969 81.488281 Z M 225.429688 83.1875 C 225.429688 83.1875 225.445312 99.414062 225.578125 101.035156 C 231.460938 102.980469 235.710938 108.527344 235.710938 115.058594 C 235.710938 122.480469 230.222656 128.632812 223.085938 129.667969 L 223.085938 228.121094 L 215.972656 228.121094 C 215.972656 228.121094 216.089844 131.84375 215.550781 128.800781 C 210.074219 126.644531 206.191406 121.300781 206.191406 115.058594 C 206.191406 107.625 211.691406 101.46875 218.839844 100.445312 L 219.230469 82.308594 C 215.042969 80.753906 211.75 77.351562 210.34375 73.09375 C 209.8125 71.738281 209.5625 70.230469 209.5625 68.527344 C 209.5625 67.402344 209.695312 66.324219 209.9375 65.304688 C 211.386719 58.671875 217.296875 53.699219 224.359375 53.699219 C 232.507812 53.699219 239.121094 60.3125 239.121094 68.460938 C 239.121094 76.25 233.078125 82.640625 225.429688 83.1875 Z M 329.421875 205.253906 C 332.746094 205.253906 335.449219 207.957031 335.449219 211.285156 C 335.449219 214.613281 332.746094 217.316406 329.421875 217.316406 C 326.09375 217.316406 323.390625 214.613281 323.390625 211.285156 C 323.390625 207.957031 326.09375 205.253906 329.421875 205.253906 Z M 84.566406 192.222656 C 82.066406 193.445312 80.03125 194.890625 80.03125 195.394531 C 80.03125 196.402344 80.347656 196.546875 89.023438 198.132812 C 97.230469 199.71875 100.828125 201.089844 107.316406 205.125 C 116.226562 210.675781 121.699219 213.054688 126.855469 213.488281 C 134.675781 214.136719 141.945312 210.746094 146.710938 204.117188 C 150.933594 198.277344 150.621094 197.414062 145.148438 199.933594 C 133.734375 205.269531 125.839844 204.691406 116.773438 197.917969 C 111.769531 194.167969 109.972656 193.230469 104.34375 191.5 C 96.683594 189.121094 90.195312 189.339844 84.566406 192.222656 Z M 340.34375 169.011719 L 340.34375 174.777344 L 274.679688 174.777344 L 274.679688 192.796875 L 268.660156 192.714844 L 268.425781 169.011719 Z M 70.105469 154.882812 C 65.726562 156.179688 60.566406 158.992188 57.988281 161.585938 C 55.332031 164.179688 50.796875 173.191406 49.546875 178.382812 C 48.375 183.429688 48.765625 191.5 50.171875 191.933594 C 52.4375 192.582031 57.675781 186.09375 60.804688 178.8125 C 64.085938 171.101562 67.210938 167.207031 71.277344 165.625 C 74.796875 164.253906 88.085938 161.804688 92.070312 161.804688 C 98.949219 161.804688 98.636719 159.785156 91.210938 156.394531 C 87.539062 154.738281 85.425781 154.304688 80.03125 154.089844 C 75.890625 153.945312 72.136719 154.234375 70.105469 154.882812 Z M 117.085938 121.796875 C 116.148438 123.957031 117.554688 129.726562 120.289062 135.058594 C 125.136719 144.503906 125.527344 154.160156 121.464844 167.207031 C 119.273438 174.203125 120.371094 174.707031 125.996094 169.300781 C 136.394531 159.496094 138.972656 145.726562 132.71875 134.195312 C 130.53125 130.230469 124.121094 124.03125 120.054688 121.941406 C 117.789062 120.714844 117.476562 120.714844 117.085938 121.796875 Z M 333.277344 143.035156 C 336.605469 143.035156 339.304688 145.734375 339.304688 149.066406 C 339.304688 152.394531 336.605469 155.097656 333.277344 155.097656 C 329.949219 155.097656 327.246094 152.394531 327.246094 149.066406 C 327.246094 145.734375 329.949219 143.035156 333.277344 143.035156 Z M 283.121094 112.753906 C 291.269531 112.753906 297.882812 119.371094 297.882812 127.519531 C 297.882812 135.667969 291.269531 142.28125 283.121094 142.28125 C 274.976562 142.28125 268.363281 135.667969 268.363281 127.519531 C 268.363281 119.371094 274.976562 112.753906 283.121094 112.753906 Z M 73.464844 74.4375 C 73.230469 74.796875 74.09375 76.601562 75.34375 78.472656 C 79.25 84.167969 80.738281 87.195312 83.238281 95.199219 L 85.582031 102.839844 L 83.863281 106.585938 C 81.363281 111.777344 81.285156 122.949219 83.707031 128.574219 C 85.738281 133.113281 88.632812 137.292969 89.882812 137.292969 C 91.523438 137.292969 91.992188 134.914062 92.460938 123.597656 C 92.929688 113.144531 94.964844 111.082031 96.917969 108.054688 C 99.808594 103.582031 102.703125 100.820312 108.878906 98.152344 C 114.351562 95.703125 117.242188 95.484375 132.40625 96.207031 C 143.664062 96.710938 144.757812 94.691406 135.378906 90.511719 C 121.386719 84.3125 113.410156 83.878906 103.015625 88.636719 C 99.730469 90.078125 97.074219 91.160156 96.996094 91.015625 C 96.917969 90.945312 95.980469 89.214844 94.964844 87.339844 C 93.871094 85.394531 91.445312 82.511719 89.492188 80.925781 C 84.410156 76.742188 74.5625 72.78125 73.464844 74.4375 Z M 283.3125 121.726562 C 286.640625 121.726562 289.34375 124.429688 289.34375 127.757812 C 289.34375 131.085938 286.640625 133.789062 283.3125 133.789062 C 279.984375 133.789062 277.28125 131.085938 277.28125 127.757812 C 277.28125 124.429688 279.984375 121.726562 283.3125 121.726562 Z M 221.425781 108.894531 C 224.753906 108.894531 227.457031 111.597656 227.457031 114.925781 C 227.457031 118.253906 224.753906 120.957031 221.425781 120.957031 C 218.101562 120.957031 215.398438 118.253906 215.398438 114.925781 C 215.398438 111.597656 218.101562 108.894531 221.425781 108.894531 Z M 285.539062 102.628906 L 284.605469 101.253906 L 269.207031 101.253906 L 269.207031 95.484375 C 269.207031 95.484375 283.394531 95.597656 285.003906 95.328125 C 286.566406 88.851562 292.601562 83.226562 299.554688 83.226562 C 307.699219 83.226562 314.3125 89.84375 314.3125 97.988281 C 314.3125 106.136719 307.699219 112.753906 299.554688 112.753906 C 293.027344 112.753906 287.484375 108.507812 285.539062 102.628906 Z M 299.671875 92.007812 C 303 92.007812 305.703125 94.710938 305.703125 98.039062 C 305.703125 101.367188 303 104.070312 299.671875 104.070312 C 296.34375 104.070312 293.644531 101.367188 293.644531 98.039062 C 293.644531 94.710938 296.34375 92.007812 299.671875 92.007812 Z M 256.683594 74.257812 C 260.011719 74.257812 262.714844 76.960938 262.714844 80.289062 C 262.714844 83.617188 260.011719 86.320312 256.683594 86.320312 C 253.355469 86.320312 250.652344 83.617188 250.652344 80.289062 C 250.652344 76.960938 253.355469 74.257812 256.683594 74.257812 Z M 224.613281 62.195312 C 227.941406 62.195312 230.640625 64.894531 230.640625 68.226562 C 230.640625 71.554688 227.941406 74.257812 224.613281 74.257812 C 221.285156 74.257812 218.582031 71.554688 218.582031 68.226562 C 218.582031 64.894531 221.285156 62.195312 224.613281 62.195312 Z M 224.613281 62.195312 " fill-opacity="1" fill-rule="nonzero"/></g></svg>