<svg width="32" height="41" viewBox="0 0 32 41" fill="none" xmlns="http://www.w3.org/2000/svg">
<g clip-path="url(#clip0_2855_488)">
<path d="M25.743 0.427736C26.7271 0.427113 27.7627 0.6185 28.8523 1.04452L28.8619 1.04896C28.873 1.05371 28.8839 1.05884 28.8948 1.06436C28.9035 1.06862 28.9122 1.07313 28.9207 1.07788C28.9312 1.08398 28.9417 1.09045 28.9519 1.09728C28.9605 1.10276 28.969 1.10848 28.9774 1.11445C28.9878 1.12218 28.9981 1.13028 29.0082 1.13874C29.0158 1.14506 29.0234 1.15158 29.0309 1.15832C29.0407 1.16746 29.0503 1.17695 29.0598 1.18679C29.0671 1.19418 29.0742 1.20178 29.0813 1.20957C29.0903 1.21984 29.0991 1.23043 29.1077 1.24133C29.1144 1.24975 29.1209 1.25835 29.1274 1.26713C29.1358 1.27884 29.144 1.29086 29.1519 1.30317C29.1575 1.31172 29.163 1.32041 29.1683 1.32924C29.1762 1.34267 29.1838 1.35641 29.1911 1.37043C29.196 1.37965 29.2007 1.389 29.2053 1.39846C29.2119 1.41223 29.2181 1.42623 29.2241 1.44046C29.2285 1.45084 29.2328 1.46134 29.2369 1.47195C29.2423 1.4865 29.2475 1.50125 29.2524 1.51618C29.256 1.52697 29.2594 1.53785 29.2627 1.54883C29.267 1.56387 29.2709 1.57906 29.2745 1.59439C29.2774 1.60576 29.2801 1.61721 29.2826 1.62873C29.2869 1.64895 29.2907 1.66937 29.2939 1.68995L30.7809 11.6518C30.8094 11.8428 30.7877 12.0411 30.7197 12.2132C30.6516 12.3853 30.5413 12.5206 30.4074 12.5962L24.9605 15.6728L22.8608 30.0987L30.5993 32.351C30.7389 32.3912 30.8642 32.4937 30.9546 32.6417C31.0451 32.7897 31.0954 32.9744 31.0974 33.1656L31.1679 39.9696C31.1693 40.1035 31.1469 40.2359 31.1026 40.356C31.0583 40.476 30.9934 40.5802 30.9131 40.66C30.8329 40.7399 30.7396 40.793 30.641 40.815C30.5425 40.8371 30.4414 40.8275 30.3461 40.7869L20.6197 36.6217L19.0178 36.2056C19.0061 36.2058 18.9944 36.2069 18.9826 36.2069C18.3215 36.2069 17.6989 35.785 17.264 35.0972C16.8295 34.41 16.6022 33.5143 16.6029 32.5917V32.5893C16.6025 32.0044 16.694 31.4294 16.8715 30.9117L18.5498 19.2941L10.1976 24.0116L10.1873 24.0168C10.1754 24.0231 10.1633 24.029 10.1511 24.0343C10.1434 24.0378 10.1357 24.041 10.1279 24.0441C10.116 24.0487 10.1039 24.0527 10.0918 24.0564C10.0827 24.0592 10.0734 24.0618 10.0642 24.064C10.0536 24.0666 10.0429 24.0687 10.0321 24.0705C10.0215 24.0724 10.0108 24.0739 10.0001 24.075C9.99061 24.0759 9.98109 24.0764 9.97157 24.0768C9.95962 24.0773 9.94766 24.0774 9.93571 24.0771C9.92767 24.077 9.91963 24.0767 9.9116 24.0762L4.37292 23.6064C4.26049 23.5965 4.15211 23.5463 4.05903 23.4612C3.96596 23.3762 3.89159 23.2592 3.84366 23.1226L0.488686 13.6063L0.488155 13.605V13.6049L0.486826 13.6007C0.447865 13.4928 0.426479 13.375 0.424088 13.2552C0.421698 13.1353 0.438358 13.0162 0.472963 12.9056C0.507566 12.7951 0.559324 12.6957 0.624798 12.614C0.690273 12.5323 0.767967 12.4702 0.852726 12.4318C1.35258 12.0639 1.88789 11.79 2.44355 11.6179L22.8883 0.987037C22.9058 0.978086 22.9236 0.97013 22.9416 0.963191C23.8259 0.621258 24.7588 0.428448 25.743 0.427736ZM27.4926 1.64875C27.4086 1.64805 27.3254 1.66983 27.2477 1.71281L7.94013 12.0812C7.80216 12.1552 7.6881 12.292 7.61801 12.4676C7.54793 12.6432 7.52631 12.8463 7.55697 13.0412C7.57535 13.0826 7.59106 13.1261 7.60392 13.1711L7.65943 13.3553C7.74138 13.5104 7.8599 13.624 7.9959 13.6778C8.1319 13.7317 8.27747 13.7226 8.40916 13.6521L27.7167 3.28101C27.8531 3.20941 27.9667 3.07645 28.0379 2.90493C28.1091 2.73341 28.1335 2.53403 28.107 2.341C28.0805 2.14796 28.0047 1.97331 27.8926 1.847C27.7804 1.72069 27.6391 1.6506 27.4926 1.64875ZM3.7651 13.0703C3.47292 13.0737 3.18405 13.1155 2.89731 13.1952L1.91848 13.7042L3.49031 18.1631C3.42975 17.802 3.39881 17.444 3.40166 17.1083C3.4083 16.3313 3.5969 15.6891 3.92262 15.3676C4.24834 15.0462 4.69878 15.058 5.14284 15.3899C5.25241 15.4717 5.36231 15.5734 5.46862 15.6902C5.42785 15.617 5.3896 15.5371 5.3566 15.4511C5.2625 15.2058 5.20732 14.9215 5.20918 14.6699C5.2113 14.4177 5.27193 14.2034 5.37937 14.0942C5.43159 14.0402 5.49603 14.0118 5.56199 14.0136C5.62906 14.015 5.70158 14.0432 5.77157 14.097C5.91149 14.2048 6.04251 14.4102 6.1368 14.6559C6.2309 14.9019 6.28622 15.1852 6.28403 15.4373C6.28203 15.6894 6.22127 15.9037 6.11389 16.013C6.00651 16.122 5.86168 16.115 5.7217 16.0073C5.94854 16.3242 6.15639 16.7102 6.32546 17.1391C6.63146 17.9146 6.80532 18.8116 6.79861 19.5886C6.7919 20.3655 6.59939 21.0104 6.2736 21.332C5.94794 21.6535 5.50169 21.6389 5.0577 21.307C4.78026 21.0996 4.50719 20.7716 4.2668 20.3655L4.82528 21.9493L8.99227 22.3052L6.51844 14.0847C5.54659 13.3955 4.641 13.0603 3.76504 13.0704L3.7651 13.0703ZM23.5593 16.4643L22.4959 17.065L20.5215 29.482C20.7225 29.3993 20.9316 29.357 21.1419 29.3566C21.3228 29.3566 21.5005 29.3891 21.6723 29.4489L23.5593 16.4643ZM21.0789 17.8655L19.9488 18.5038L18.4215 29.0768C18.6042 29.0091 18.7929 28.9745 18.9824 28.9739C19.0915 28.9739 19.1993 28.9864 19.3055 29.0086L21.0788 17.8653L21.0789 17.8655ZM18.9825 30.6704C18.726 30.6704 18.4341 30.8464 18.2207 31.184C18.0073 31.5215 17.8599 32.0639 17.8605 32.5893C17.8605 32.5901 17.8605 32.5909 17.8605 32.5917C17.8598 33.1171 18.0073 33.6594 18.2206 33.997C18.3164 34.1488 18.4334 34.274 18.5651 34.3656L18.9731 34.4714C18.8332 34.0023 18.7616 33.4925 18.762 32.9742V32.972C18.7616 32.639 18.7915 32.3071 18.8511 31.9838C18.8495 31.9167 18.8538 31.8495 18.864 31.7838L19.0403 30.6753C19.0211 30.6733 19.0016 30.6704 18.9825 30.6704ZM21.1419 31.053C20.8853 31.053 20.5934 31.229 20.3799 31.5666C20.1664 31.9043 20.0193 32.4466 20.0198 32.972C20.0198 32.9728 20.0198 32.9735 20.0198 32.9742C20.0193 33.4996 20.1666 34.042 20.3799 34.3796C20.5934 34.7173 20.8853 34.8934 21.142 34.8934C21.3985 34.8934 21.6887 34.7172 21.9021 34.3796C22.1155 34.042 22.2646 33.4996 22.264 32.9742C22.264 32.9735 22.264 32.9728 22.264 32.972C22.2646 32.4466 22.1155 31.9043 21.9021 31.5666C21.6887 31.229 21.3985 31.053 21.142 31.053H21.1419ZM23.4326 31.9952C23.4909 32.315 23.5201 32.6429 23.5198 32.972V32.9742C23.5204 33.8969 23.2933 34.7926 22.8588 35.4798C22.8031 35.5679 22.7445 35.6515 22.683 35.7304L29.8937 38.8183L29.8418 33.8606L23.4326 31.9952V31.9952Z" fill="black"/>
</g>
<defs>
<clipPath id="clip0_2855_488">
<rect width="32" height="41" fill="white" transform="matrix(-1 0 0 1 32 0)"/>
</clipPath>
</defs>
</svg>
