<svg width="36" height="41" viewBox="0 0 36 41" fill="none" xmlns="http://www.w3.org/2000/svg">
<g clip-path="url(#clip0_2855_486)">
<path d="M6.36023 0.427736C5.23371 0.427113 4.04836 0.6185 2.80113 1.04452L2.79011 1.04896C2.77743 1.05371 2.76485 1.05884 2.7524 1.06436C2.74244 1.06862 2.73256 1.07313 2.72276 1.07788C2.71071 1.08398 2.6988 1.09045 2.68703 1.09728C2.6772 1.10276 2.66747 1.10848 2.65784 1.11445C2.64593 1.12218 2.63419 1.13028 2.62265 1.13874C2.61387 1.14506 2.6052 1.15158 2.59665 1.15832C2.58541 1.16746 2.57439 1.17695 2.56359 1.18679C2.55524 1.19418 2.54703 1.20178 2.53896 1.20957C2.52866 1.21984 2.5186 1.23043 2.50878 1.24133C2.5011 1.24975 2.49358 1.25835 2.4862 1.26713C2.47655 1.27884 2.46717 1.29086 2.45808 1.30317C2.45168 1.31172 2.44542 1.32041 2.4393 1.32924C2.4303 1.34267 2.42163 1.35641 2.41331 1.37043C2.40771 1.37965 2.40226 1.389 2.39696 1.39846C2.38949 1.41223 2.38234 1.42623 2.37553 1.44046C2.37046 1.45084 2.36557 1.46134 2.36086 1.47195C2.35461 1.4865 2.3487 1.50125 2.34315 1.51618C2.33901 1.52697 2.33505 1.53785 2.33129 1.54883C2.32643 1.56387 2.32192 1.57906 2.31776 1.59439C2.31447 1.60576 2.31138 1.61721 2.30848 1.62873C2.30356 1.64895 2.29925 1.66937 2.29556 1.68995L0.593467 11.6518C0.560886 11.8428 0.585642 12.0411 0.66355 12.2132C0.741458 12.3853 0.867738 12.5206 1.02104 12.5962L7.2559 15.6728L9.65945 30.0987L0.801288 32.351C0.641532 32.3912 0.498163 32.4937 0.39461 32.6417C0.291058 32.7897 0.233445 32.9744 0.231186 33.1656L0.15046 39.9696C0.148873 40.1035 0.174488 40.2359 0.225193 40.356C0.275898 40.476 0.350243 40.5802 0.442104 40.66C0.533964 40.7399 0.640711 40.793 0.753551 40.815C0.86639 40.8371 0.982093 40.8275 1.09113 40.7869L12.2247 36.6217L14.0583 36.2056C14.0718 36.2058 14.0852 36.2069 14.0986 36.2069C14.8554 36.2069 15.5681 35.785 16.0659 35.0972C16.5632 34.41 16.8234 33.5143 16.8227 32.5917V32.5893C16.8231 32.0044 16.7184 31.4294 16.5152 30.9117L14.5941 19.2941L24.1546 24.0116L24.1664 24.0168C24.1801 24.0231 24.1939 24.029 24.2078 24.0343C24.2166 24.0378 24.2255 24.041 24.2344 24.0441C24.2481 24.0487 24.2619 24.0527 24.2757 24.0564C24.2862 24.0592 24.2967 24.0618 24.3073 24.064C24.3195 24.0666 24.3318 24.0687 24.344 24.0705C24.3562 24.0724 24.3684 24.0739 24.3807 24.075C24.3916 24.0759 24.4025 24.0764 24.4134 24.0768C24.427 24.0773 24.4407 24.0774 24.4544 24.0771C24.4636 24.077 24.4728 24.0767 24.482 24.0762L30.822 23.6064C30.9507 23.5965 31.0747 23.5463 31.1813 23.4612C31.2878 23.3762 31.3729 23.2592 31.4278 23.1226L35.2682 13.6063L35.2688 13.605V13.6049L35.2703 13.6007C35.3149 13.4928 35.3394 13.375 35.3421 13.2552C35.3448 13.1353 35.3258 13.0162 35.2862 12.9056C35.2466 12.7951 35.1873 12.6957 35.1124 12.614C35.0374 12.5323 34.9485 12.4702 34.8515 12.4318C34.2793 12.0639 33.6665 11.79 33.0305 11.6179L9.6279 0.987037C9.60788 0.978086 9.58754 0.97013 9.56694 0.963191C8.55467 0.621258 7.48683 0.428448 6.36023 0.427736ZM4.3575 1.64875C4.45364 1.64805 4.54892 1.66983 4.63777 1.71281L26.7387 12.0812C26.8966 12.1552 27.0272 12.292 27.1074 12.4676C27.1876 12.6432 27.2124 12.8463 27.1773 13.0412C27.1562 13.0826 27.1383 13.1261 27.1236 13.1711L27.06 13.3553C26.9662 13.5104 26.8305 13.624 26.6749 13.6778C26.5192 13.7317 26.3526 13.7226 26.2018 13.6521L4.10096 3.28101C3.94483 3.20941 3.81485 3.07645 3.73333 2.90493C3.65181 2.73341 3.62382 2.53403 3.65417 2.341C3.68452 2.14796 3.77131 1.97331 3.89966 1.847C4.02801 1.72069 4.18983 1.6506 4.3575 1.64875ZM31.5177 13.0703C31.8522 13.0737 32.1829 13.1155 32.5111 13.1952L33.6315 13.7042L31.8323 18.1631C31.9016 17.802 31.937 17.444 31.9338 17.1083C31.9262 16.3313 31.7103 15.6891 31.3374 15.3676C30.9646 15.0462 30.449 15.058 29.9407 15.3899C29.8153 15.4717 29.6895 15.5734 29.5678 15.6902C29.6144 15.617 29.6582 15.5371 29.696 15.4511C29.8037 15.2058 29.8669 14.9215 29.8647 14.6699C29.8623 14.4177 29.7929 14.2034 29.6699 14.0942C29.6102 14.0402 29.5364 14.0118 29.4609 14.0136C29.3841 14.015 29.3011 14.0432 29.221 14.097C29.0608 14.2048 28.9109 14.4102 28.8029 14.6559C28.6952 14.9019 28.6319 15.1852 28.6344 15.4373C28.6367 15.6894 28.7062 15.9037 28.8291 16.013C28.9521 16.122 29.1178 16.115 29.2781 16.0073C29.0184 16.3242 28.7805 16.7102 28.587 17.1391C28.2367 17.9146 28.0377 18.8116 28.0454 19.5886C28.053 20.3655 28.2734 21.0104 28.6463 21.332C29.0191 21.6535 29.5299 21.6389 30.0381 21.307C30.3557 21.0996 30.6683 20.7716 30.9435 20.3655L30.3042 21.9493L25.5343 22.3052L28.3661 14.0847C29.4785 13.3955 30.5151 13.0603 31.5178 13.0704L31.5177 13.0703ZM8.85978 16.4643L10.0771 17.065L12.3371 29.482C12.107 29.3993 11.8677 29.357 11.627 29.3566C11.4199 29.3566 11.2165 29.3891 11.0198 29.4489L8.85978 16.4643ZM11.6991 17.8655L12.9926 18.5038L14.7409 29.0768C14.5318 29.0091 14.3159 28.9745 14.0989 28.9739C13.974 28.9739 13.8506 28.9864 13.7291 29.0086L11.6992 17.8653L11.6991 17.8655ZM14.0988 30.6704C14.3924 30.6704 14.7265 30.8464 14.9708 31.184C15.2151 31.5215 15.3838 32.0639 15.3831 32.5893C15.3831 32.5901 15.3831 32.5909 15.3831 32.5917C15.3839 33.1171 15.2151 33.6594 14.9709 33.997C14.8613 34.1488 14.7273 34.274 14.5765 34.3656L14.1096 34.4714C14.2697 34.0023 14.3516 33.4925 14.3512 32.9742V32.972C14.3516 32.639 14.3174 32.3071 14.2491 31.9838C14.2511 31.9167 14.2461 31.8495 14.2345 31.7838L14.0326 30.6753C14.0546 30.6733 14.077 30.6704 14.0988 30.6704ZM11.627 31.053C11.9207 31.053 12.2549 31.229 12.4992 31.5666C12.7436 31.9043 12.912 32.4466 12.9114 32.972C12.9114 32.9728 12.9114 32.9735 12.9114 32.9742C12.912 33.4996 12.7434 34.042 12.4992 34.3796C12.2548 34.7173 11.9207 34.8934 11.6269 34.8934C11.3333 34.8934 11.0011 34.7172 10.7568 34.3796C10.5125 34.042 10.3419 33.4996 10.3425 32.9742C10.3425 32.9735 10.3425 32.9728 10.3425 32.972C10.3419 32.4466 10.5125 31.9043 10.7568 31.5666C11.0011 31.229 11.3333 31.053 11.6269 31.053H11.627ZM9.00482 31.9952C8.93815 32.315 8.90466 32.6429 8.90509 32.972V32.9742C8.90433 33.8969 9.16429 34.7926 9.66165 35.4798C9.72545 35.5679 9.79255 35.6515 9.86294 35.7304L1.60901 38.8183L1.66845 33.8606L9.00482 31.9952V31.9952Z" fill="black"/>
</g>
<defs>
<clipPath id="clip0_2855_486">
<rect width="36" height="41" fill="white"/>
</clipPath>
</defs>
</svg>
