<svg width="100%" height="100%" viewBox="0 0 680 496" fill="none" xmlns="http://www.w3.org/2000/svg">
<path d="M0 174C0 124.294 40.2944 84 90 84H590C639.706 84 680 124.294 680 174V279C680 281.761 677.761 284 675 284H5C2.23858 284 0 281.761 0 279V174Z" fill="#142B6F"/>
<path d="M296.5 285.5H89C89 260.667 103 184 189.5 184C262.337 184 297.333 238.667 296.5 285.5Z" fill="#D9D9D9"/>
<path d="M268 282C268 323.421 234.421 357 193 357C151.578 357 118 323.421 118 282C118 240.579 151.578 207 193 207C234.421 207 268 240.579 268 282Z" fill="#142B6F"/>
<path d="M594.5 285.5H387C387 260.667 401 184 487.5 184C560.337 184 595.333 238.667 594.5 285.5Z" fill="#D9D9D9"/>
<path d="M566 282C566 323.421 532.421 357 491 357C449.578 357 416 323.421 416 282C416 240.579 449.578 207 491 207C532.421 207 566 240.579 566 282Z" fill="#142B6F"/>
<path d="M332.88 494.416C436.468 494.94 468.654 446.603 491.42 411.519L449.067 411.304C441.674 431 395.988 470.235 339.357 469.949C288.534 469.691 242.078 443.456 229.541 410.193L191.424 410C198.826 435.205 229.293 493.892 332.88 494.416Z" fill="#142B6F"/>
<path d="M345 19.5C303.5 19.5 237 55 230 84H453C453 52.5 386.5 19.5 345 19.5Z" fill="#E1DEE5"/>
<path d="M348.118 0C244.528 0.000183298 212.588 48.5 190 83.6987H232.353C239.647 63.9658 285.133 24.4999 341.765 24.4999C392.588 24.4999 439.176 50.4999 451.882 83.6987H490C482.471 58.5321 451.707 -0.000183297 348.118 0Z" fill="#142B6F"/>
</svg>
