<svg xmlns="http://www.w3.org/2000/svg" xmlns:xlink="http://www.w3.org/1999/xlink" width="24" zoomAndPan="magnify" viewBox="0 0 375 374.999991" height="24" preserveAspectRatio="xMidYMid meet" version="1.0"><defs><clipPath id="0fac0dbbb8"><path d="M 24.375 2 L 350 2 L 350 373 L 24.375 373 Z M 24.375 2 " clip-rule="nonzero"/></clipPath></defs><g clip-path="url(#0fac0dbbb8)"><path fill="currentColor" d="M 188.078125 33.605469 C 189.027344 33.605469 189.859375 34.039062 190.917969 34.835938 C 209.097656 48.621094 229.265625 59.492188 250.835938 67.140625 C 270.964844 74.28125 293.082031 78.882812 316.5625 80.8125 L 316.617188 80.8125 C 318.171875 80.964844 319.382812 82.269531 319.402344 83.878906 C 319.914062 119.101562 314.972656 154.609375 304.6875 189.449219 C 286.339844 251.636719 250.226562 301.003906 197.339844 336.148438 C 189.652344 341.261719 184.480469 341.566406 176.851562 337.34375 C 107.523438 298.882812 68.457031 237.910156 57.382812 150.914062 C 54.730469 130.140625 53.859375 108.839844 54.730469 85.792969 C 54.824219 83.140625 56.8125 80.945312 59.445312 80.605469 C 84.742188 77.15625 111.578125 72.878906 137.121094 61.667969 C 153.007812 54.699219 168.253906 46.179688 182.398438 36.386719 C 185.144531 34.476562 186.714844 33.605469 188.078125 33.605469 Z M 349.074219 82.023438 C 348.925781 76.078125 348.507812 69.792969 345.722656 64.261719 C 342.46875 57.804688 336.882812 53.410156 328.605469 50.816406 C 321.941406 48.734375 314.535156 48.148438 308.023438 47.617188 L 307.910156 47.617188 C 276.359375 45.078125 245.625 34.117188 219.003906 15.898438 C 218.167969 15.332031 217.335938 14.761719 216.503906 14.175781 C 208.359375 8.53125 199.933594 2.679688 189.671875 2.1875 C 178.136719 1.621094 167.988281 8.210938 159.03125 14.042969 C 158.273438 14.515625 157.535156 14.988281 156.816406 15.484375 C 136.097656 28.792969 113.507812 38.414062 89.648438 44.058594 C 79.15625 46.539062 67.910156 48.203125 54.238281 49.320312 C 41.304688 50.363281 32.214844 56.234375 27.972656 66.289062 C 25 73.296875 24.601562 80.8125 24.433594 88.558594 C 24.300781 94.464844 24.28125 100.394531 24.355469 106.148438 C 25.171875 172.730469 39.125 228.933594 65.863281 273.226562 C 76.429688 290.742188 89.589844 307.273438 104.96875 322.363281 C 119.359375 336.492188 135.71875 349.40625 153.632812 360.765625 C 163.574219 367.074219 174.371094 372.847656 186.035156 372.847656 C 186.714844 372.847656 187.398438 372.828125 188.078125 372.792969 C 198.324219 372.1875 207.488281 367.074219 215.859375 361.621094 C 237.503906 347.511719 257.347656 329.804688 274.84375 308.957031 C 291.925781 288.582031 306.394531 265.707031 317.792969 240.957031 C 339.855469 193.125 350.667969 138.171875 349.074219 82.023438 " fill-opacity="1" fill-rule="nonzero"/></g><path fill="currentColor" d="M 256.703125 155.515625 C 256.421875 157.296875 255.09375 158.679688 253.828125 159.949219 C 227.542969 186.230469 201.316406 212.554688 175.050781 238.835938 C 172.816406 241.070312 169.996094 243.496094 166.925781 242.792969 C 165.222656 242.394531 163.898438 241.109375 162.667969 239.878906 C 148.503906 225.695312 134.339844 211.53125 120.171875 197.347656 C 118.527344 195.699219 116.765625 193.785156 116.765625 191.457031 C 116.785156 189.183594 118.488281 187.3125 120.097656 185.699219 C 124.378906 181.363281 128.65625 177.046875 132.9375 172.710938 C 134.640625 170.988281 136.609375 169.152344 139.035156 169.054688 C 141.722656 168.921875 143.957031 170.96875 145.851562 172.882812 C 153.351562 180.398438 160.847656 187.917969 168.347656 195.414062 C 188.210938 175.511719 208.078125 155.59375 227.941406 135.691406 C 229.644531 133.984375 231.574219 132.1875 233.980469 132.09375 C 236.632812 131.996094 238.808594 134.023438 240.683594 135.898438 C 244.832031 140.082031 248.996094 144.289062 253.164062 148.492188 C 255.074219 150.441406 257.160156 152.828125 256.703125 155.515625 Z M 295.410156 105.582031 C 295.371094 102.589844 293.101562 100.070312 290.109375 99.824219 C 290.109375 99.804688 290.089844 99.804688 290.070312 99.804688 C 254.46875 96.871094 221.351562 86.191406 192 63.960938 C 187.832031 60.816406 184.765625 62.671875 181.242188 65.09375 C 170.03125 72.859375 158.253906 79.429688 145.832031 84.882812 C 126.042969 93.558594 105.195312 96.945312 83.511719 99.863281 C 80.671875 100.242188 78.53125 102.589844 78.417969 105.449219 C 77.644531 124.121094 78.25 141.75 80.484375 159.304688 C 89.0625 226.679688 119.625 278.054688 177.117188 309.960938 C 184.328125 313.957031 189.859375 313.578125 196.921875 308.882812 C 239.472656 280.609375 268.597656 241.296875 283.59375 190.453125 C 291.738281 162.863281 295.847656 134.574219 295.410156 105.582031 " fill-opacity="1" fill-rule="nonzero"/></svg>